<?xml version="1.0" encoding="UTF-8"?>
<svg width="120px" height="34px" viewBox="0 0 120 34" version="1.1" xmlns="http://www.w3.org/2000/svg" xmlns:xlink="http://www.w3.org/1999/xlink">
    <!-- Generator: sketchtool 59.1 (101010) - https://sketch.com -->
    <title>5B4198E5-5637-4A5A-BF75-AB9DDB94D99E</title>
    <desc>Created with sketchtool.</desc>
    <g id="Deluto-landing-page" stroke="none" stroke-width="1" fill="none" fill-rule="evenodd">
        <g id="Homepage-Copy" transform="translate(-144.000000, -32.000000)" fill-rule="nonzero">
            <g id="Group-2" transform="translate(142.000000, 30.000000)">
                <g id="deluto-copy-2">
                    <ellipse id="Oval" fill="#FFD400" transform="translate(18.940628, 18.946878) rotate(-80.870000) translate(-18.940628, -18.946878) " cx="18.9406279" cy="18.9468775" rx="16.5161869" ry="16.5111683"></ellipse>
                    <path d="M47.4175766,24.1380766 L54.4093022,24.1380766 C53.9629504,25.9778845 52.7541832,27.5600211 51.0657009,28.5144644 C49.3431465,29.5048215 47.0802431,30 44.2769907,30 C41.1251262,30 38.6222955,29.1552254 36.7684988,27.4656763 C34.9147021,25.7761272 33.9919051,23.498306 34.0000535,20.6322127 C34.0000535,17.6611415 34.9464873,15.3139953 36.8392466,13.590774 C38.7320058,11.8675528 41.3045589,11.0039614 44.5569058,11 C47.819506,11 50.3777045,11.9348971 52.2315012,13.8046912 C54.0852979,15.6744853 55.0080949,18.2791243 54.9999465,21.6186083 L54.9999465,22.0434715 L41.3025083,22.0434715 C41.2918316,22.5476912 41.3698393,23.0500036 41.5332075,23.529007 C41.6835993,23.9492644 41.9211962,24.3354593 42.2314573,24.6639562 C42.8066674,25.2581704 43.6218048,25.573104 44.6922494,25.573104 C45.3116577,25.5979732 45.9272268,25.4680064 46.4793996,25.195778 C46.9152245,24.9655425 47.2488868,24.5893714 47.4175766,24.1380766 L47.4175766,24.1380766 Z M41.2902043,18.5257232 L47.7928474,18.5257232 C47.8022558,18.0448817 47.7198802,17.5664795 47.5498442,17.1144644 C47.3953318,16.7200996 47.1563431,16.3616947 46.8485185,16.0627052 C46.3071442,15.510086 45.5135387,15.2308053 44.4677021,15.2308053 C43.6096914,15.1975512 42.7782969,15.522229 42.1853174,16.1221267 C41.9025182,16.4268815 41.6822652,16.7807767 41.5362835,17.1649726 C41.3693446,17.600348 41.2859557,18.061466 41.2902043,18.5257232 Z" id="Shape" fill="#FFFFFF"></path>
                    <polygon id="Path" fill="#FFFFFF" points="58 29 58 5 65 5 65 29"></polygon>
                    <path d="M87,11 L87,29.5059205 L80.6037267,29.5059205 L80.6037267,26.7802663 C79.876244,27.7967171 78.9365533,28.6241713 77.8569876,29.1989355 C76.7893636,29.7401801 75.6169224,30.0140174 74.431677,29.9989569 C73.4459075,30.016092 72.4671513,29.8219579 71.5551242,29.428399 C70.7278713,29.0646276 69.9969283,28.4953629 69.425,27.76944 C68.8839768,27.0725297 68.5096612,26.2495458 68.3333851,25.3693759 C68.1130952,24.391572 68.0019669,22.7966974 68,20.584752 L68,11 L74.9981366,11 L74.9981366,20.5506426 C74.9981366,21.9356925 75.1761387,22.9031602 75.5321429,23.4530457 C75.8891304,24.0049984 76.5057453,24.2778739 77.3790373,24.2778739 C78.1418022,24.3336068 78.8804884,23.9844106 79.3468944,23.3476165 C79.7835404,22.7274449 80.0048137,21.7785824 80.0048137,20.519634 L80.0048137,11 L87,11 Z" id="Path" fill="#FFFFFF"></path>
                    <path d="M97.3339475,22.9868554 C97.3339475,23.5935288 97.5274067,24.0273003 97.9078766,24.2790698 C98.2883464,24.5308392 98.9622294,24.6521739 99.9198526,24.6521739 L101,24.6521739 L101,29.8331648 L98.4205435,29.9484328 L96.2602487,30 C93.8420083,30 92.1481652,29.6167846 91.1787195,28.8503539 C90.2114233,28.082912 89.7277752,26.7421638 89.7277752,24.8190091 L89.7277752,15.7280081 L87,15.7280081 L87,11.5813953 L89.7084293,11.5813953 L89.7084293,6 L97.3210502,6 L97.3210502,11.5813953 L100.929065,11.5813953 L100.929065,15.7280081 L97.3339475,15.7280081 L97.3339475,22.9868554 Z" id="Path" fill="#FFFFFF"></path>
                    <path d="M101,20.4747301 C101,17.5374746 101.933748,15.2245345 103.801245,13.5359099 C105.668742,11.8472852 108.238625,11.001982 111.510894,11 C114.770713,11 117.333333,11.8453033 119.198755,13.5359099 C121.064177,15.2265165 121.997925,17.5394565 122,20.4747301 C122,23.4218954 121.066252,25.7457362 119.198755,27.4462525 C117.331258,29.1467689 114.768638,29.998018 111.510894,30 C108.2739,30 105.713354,29.1517238 103.829257,27.4551713 C101.945161,25.7586189 101.002075,23.4318051 101,20.4747301 Z M108.469987,20.4747301 C108.469987,22.1157878 108.706536,23.2940594 109.179635,24.0095447 C109.652735,24.72503 110.430858,25.0837636 111.514006,25.0857456 C112.572254,25.0857456 113.34934,24.7220571 113.845265,23.99468 C114.341189,23.267303 114.589151,22.0939863 114.589151,20.4747301 C114.589151,18.8574558 114.347414,17.692067 113.86394,16.9785636 C113.380465,16.2650602 112.596117,15.9092995 111.510894,15.9112733 C110.440196,15.9112733 109.665185,16.2650602 109.18586,16.9726177 C108.706536,17.6801752 108.466874,18.847546 108.466874,20.4747301 L108.469987,20.4747301 Z" id="Shape" fill="#FFFFFF"></path>
                    <path d="M27.2415898,9.64695241 C25.1329209,7.88445125 22.216372,7.00213378 18.4919432,7 L10,7 L10,22.1167548 L16.5192844,22.1167548 L16.5192844,13.5677707 L18.7189677,13.5677707 C22.4515776,13.5677707 24.3189052,15.1254291 24.3209504,18.2407459 C24.3209504,21.5566379 22.4208986,23.2145839 18.6207949,23.2145839 L17.6237279,23.2145839 L17.6237279,29.9359866 C18.498079,29.9775953 19.133134,30 19.5196892,30 C22.8923323,30 25.653441,28.9053716 27.8030153,26.7161147 C29.9525895,24.5268578 31.018173,21.6996011 30.9997656,18.2343446 C30.9997656,14.6197235 29.7470403,11.7572595 27.2415898,9.64695241 Z" id="Path" fill="#FFFFFF"></path>
                    <rect id="Rectangle" fill="#FFFFFF" x="18" y="18" width="4" height="4"></rect>
                </g>
            </g>
        </g>
    </g>
</svg>