<?xml version="1.0" encoding="UTF-8"?>
<svg width="40px" height="40px" viewBox="0 0 40 40" version="1.1" xmlns="http://www.w3.org/2000/svg" xmlns:xlink="http://www.w3.org/1999/xlink">
    <!-- Generator: sketchtool 59.1 (101010) - https://sketch.com -->
    <title>83C997C1-B411-4A92-A9D5-C518481EEE2C</title>
    <desc>Created with sketchtool.</desc>
    <g id="Deluto-landing-page" stroke="none" stroke-width="1" fill="none" fill-rule="evenodd">
        <g id="Homepage-Copy" transform="translate(-499.000000, -1311.000000)">
            <g id="Group-11" transform="translate(499.000000, 1311.000000)">
                <g id="Group-9">
                    <rect id="Rectangle-Copy-4" fill="#E4FCEC" x="0" y="0" width="40" height="40" rx="10"></rect>
                    <g id="Group-4" transform="translate(12.000000, 8.000000)" fill="#10983E">
                        <path d="M14.3,3.47364257 C14.3,4.00482212 13.910218,4.44642671 13.3944457,4.50106744 L12.5982579,4.58571578 L12.5982579,2.8376603 C12.5982579,2.68941373 12.4810171,2.5689354 12.3362159,2.5689354 C12.1914147,2.5689354 12.0737364,2.68941373 12.0737364,2.8376603 L12.0737364,4.64170013 L10.7534646,4.78188496 L10.7534646,3.05891047 C10.7534646,2.9106639 10.6357863,2.79018557 10.4909851,2.79018557 C10.3461839,2.79018557 10.2285056,2.9106639 10.2285056,3.05891047 L10.2285056,4.83742144 L8.7,5 L8.7,0.714285714 L13.3944457,1.21321828 C13.910218,1.26830688 14.3,1.70991147 14.3,2.24109102 L14.3,3.47364257 Z M13.5510889,0.587567211 L8.30442792,0.00195092871 C8.22705441,-0.00794960015 8.14922034,0.0202669071 8.09119021,0.0766999216 C8.03269952,0.133132936 8,0.21332722 8,0.297481715 L8,5.68881471 L8,5.69673513 L8,9.70298413 C8,9.86683789 8.12388973,10 8.27633397,10 C8.42877821,10 8.55220738,9.86683789 8.55220738,9.70298413 L8.55220738,5.96107925 L10.4308178,5.75118804 C10.4331206,5.75118804 10.4354234,5.75267312 10.4377262,5.75267312 C10.4455556,5.75267312 10.4520034,5.74871291 10.4593723,5.74821788 L12.3702217,5.53486148 C12.3739062,5.53486148 12.3766695,5.53684159 12.380354,5.53684159 C12.3914073,5.53684159 12.4006185,5.53189132 12.4112113,5.53040625 L13.5510889,5.40318445 C14.3773275,5.31110953 15,4.56856987 15,3.67653222 L15,2.31421944 C15,1.42168677 14.3773275,0.679642129 13.5510889,0.587567211 L13.5510889,0.587567211 Z" id="Wind-sock"></path>
                        <path d="M2.83333333,23.2727273 L4.28410724,19.6363636 L6.744503,20.0665261 C7.44515624,20.1891863 8.14986419,20.2505164 8.85457214,20.2505164 C9.55928009,20.2505164 10.263988,20.1891863 10.9638303,20.0665261 L13.425037,19.6363636 L14.875,23.2727273 L2.83333333,23.2727273 Z M5.63151774,15.2727273 C6.57477224,15.4739783 7.53697422,15.5800641 8.5,15.5800641 C9.46302578,15.5800641 10.4252278,15.4739783 11.3676585,15.2727273 L12.75,18.3960179 L10.4804226,18.7540574 C9.16563287,18.9607687 7.83271952,18.9607687 6.51957744,18.7540574 L4.25,18.3960179 L5.63151774,15.2727273 Z M8.13865825,9.91716148 C8.38896269,9.30034011 9.31854727,9.30034011 9.56967508,9.91716148 L11.3333333,14.2792744 C9.70059089,14.6341813 8.00774244,14.6341813 6.375,14.2792744 L8.13865825,9.91716148 Z M16.5196472,22.9690722 L15.4971933,22.9690722 L10.0842021,9.12800687 C9.81234964,8.43213058 9.2052927,8 8.50040096,8 C7.79550922,8 7.18925421,8.43213058 6.91659984,9.12800687 L1.50280674,22.9690722 L0.481154771,22.9690722 C0.214915798,22.9690722 0,23.2001718 0,23.4845361 C0,23.7697595 0.214915798,24 0.481154771,24 L16.5196472,24 C16.7850842,24 17,23.7697595 17,23.4845361 C17,23.2001718 16.7850842,22.9690722 16.5196472,22.9690722 L16.5196472,22.9690722 Z" id="Road-barrier-cone"></path>
                    </g>
                </g>
            </g>
        </g>
    </g>
</svg>