<?xml version="1.0" encoding="UTF-8"?>
<svg width="57px" height="57px" viewBox="0 0 57 57" version="1.1" xmlns="http://www.w3.org/2000/svg" xmlns:xlink="http://www.w3.org/1999/xlink">
    <!-- Generator: sketchtool 59.1 (101010) - https://sketch.com -->
    <title>549E26D3-1C52-4942-8048-568186D32355</title>
    <desc>Created with sketchtool.</desc>
    <g id="Deluto-landing-page" stroke="none" stroke-width="1" fill="none" fill-rule="evenodd">
        <g id="Homepage-Copy" transform="translate(-660.000000, -2493.000000)">
            <g id="Group-14" transform="translate(662.000000, 2495.000000)">
                <path d="M32.8515,28.2518165 L24.45225,32.9598898 C24.32625,33.0275848 24.2205,32.9970129 24.15075,32.9598898 C24.08325,32.9205831 24,32.8463371 24,32.7087635 L24,23.2926168 C24,23.1550432 24.08325,23.0786135 24.15075,23.0414904 C24.189,23.0196534 24.24075,23 24.3015,23 C24.3465,23 24.396,23.0109185 24.45225,23.0414904 L32.8515,27.7495638 C32.97525,27.8194424 33,27.9242604 33,28.0006901 C33,28.0749362 32.97525,28.1819379 32.8515,28.2518165 L32.8515,28.2518165 Z M33.5409375,25.3541517 L25.3728125,20.4151198 C24.460625,19.8627733 23.3690625,19.8604814 22.456875,20.4151198 C21.5446875,20.9651744 21,21.9552726 21,23.0599656 L21,32.9426132 C21,34.0450143 21.5446875,35.0351126 22.456875,35.5874591 C22.911875,35.8624864 23.415,36 23.91375,36 C24.416875,36 24.915625,35.8624864 25.3728125,35.5874591 L33.5409375,30.6461353 C34.4553125,30.0937888 35,29.1059824 35,28.0012894 C35,26.8965964 34.4553125,25.9064982 33.5409375,25.3541517 L33.5409375,25.3541517 Z" id="File-play" fill="#FFFFFF"></path>
                <circle id="Oval" stroke="#FFFFFF" stroke-width="3" cx="26.5" cy="26.5" r="26.5"></circle>
            </g>
        </g>
    </g>
</svg>