<?xml version="1.0" encoding="UTF-8"?>
<svg width="40px" height="40px" viewBox="0 0 40 40" version="1.1" xmlns="http://www.w3.org/2000/svg" xmlns:xlink="http://www.w3.org/1999/xlink">
    <!-- Generator: sketchtool 59.1 (101010) - https://sketch.com -->
    <title>4E9B7E32-244C-4B72-9C92-5D49D3DDB169</title>
    <desc>Created with sketchtool.</desc>
    <g id="Deluto-landing-page" stroke="none" stroke-width="1" fill="none" fill-rule="evenodd">
        <g id="Homepage-Copy" transform="translate(-879.000000, -1311.000000)">
            <g id="Group-8" transform="translate(879.000000, 1311.000000)">
                <rect id="Rectangle-Copy-5" fill="#FEE8E6" x="0" y="0" width="40" height="40" rx="10"></rect>
                <path d="M23,20.5 C23,21.88 21.88,23 20.5,23 C19.12,23 18,21.88 18,20.5 C18,19.12 19.12,18 20.5,18 C21.88,18 23,19.12 23,20.5 M31.5158556,27.0048287 C30.626927,28.5865613 28.9411549,29.0894388 27,28.9873509 C27.4358697,27.6753321 27.7342256,26.2612254 27.9269905,24.8798876 C28.996406,24.0165515 30.0412655,23.0435654 30.9314219,22 C31.9873316,23.6737377 32.4047843,25.4230962 31.5158556,27.0048287 M26.79136,23.749689 C25.81088,24.4661755 24.83808,25.0806621 23.99968,25.5508564 C23.16,26.0198067 22.12704,26.5322936 20.99808,27 C19.8704,26.5322936 18.83872,26.0198067 17.99904,25.5508564 C17.16192,25.0806621 16.18912,24.4661755 15.20864,23.749689 C15.06016,22.56674 15,21.4410104 15,20.500622 C15,19.5602335 15.06144,18.4345039 15.20864,17.2515549 C16.18912,16.5350684 17.16192,15.9205818 17.99904,15.4503875 C18.83872,14.9814372 19.87168,14.4689503 20.99936,14 C22.12704,14.4689503 23.16,14.9814372 23.99968,15.4503875 C24.83808,15.9205818 25.81088,16.5350684 26.79136,17.2515549 C26.93856,18.4345039 27,19.5602335 27,20.500622 C27,21.4410104 26.93856,22.56674 26.79136,23.749689 M25.3566642,28 C24.5781832,27.8811222 23.7795979,27.6975749 23,27.4740846 C23.5483991,27.2458393 24.0632911,27.0118878 24.5301564,26.7826914 C24.9970216,26.552544 25.4929263,26.2900618 26,26 C25.8358153,26.6866381 25.6247208,27.3666191 25.3566642,28 M21,33 C19.1893158,33 17.8997188,31.8275044 17,30.155898 C18.3483286,29.9033788 19.7154014,29.488441 21,29 C22.2845986,29.488441 23.6516714,29.9033788 25,30.155898 C24.1002812,31.8275044 22.8106842,33 21,33 M15,26 C15.5072626,26.2911513 16.003352,26.5528069 16.4703911,26.7830637 C16.9374302,27.0123692 17.4513966,27.246432 18,27.4747859 C17.2189944,27.697431 16.4223464,27.8810657 15.6435754,28 C15.375419,27.3672693 15.1642458,26.6869648 15,26 M9.48379141,27.0055424 C8.5947933,25.4235843 9.0135065,23.6739764 10.0694987,22 C10.9584968,23.0437142 12.003438,24.0168391 13.0717092,24.8790378 C13.2644891,26.2605725 13.5640962,27.6748809 14,28.9870868 C12.0586934,29.0904498 10.3727895,28.5862401 9.48379141,27.0055424 M13,22 C12.2793734,21.3703226 11.5966057,20.6967742 11,20 C11.5966057,19.3019355 12.2793734,18.6296774 13,18 C12.9516971,18.7032258 12.9295039,19.3780645 12.9295039,20 C12.9295039,20.6219355 12.9516971,21.2954839 13,22 M9.48379141,13.9951386 C10.3015714,12.5419517 11.7885558,12 13.5297151,12 C13.6844302,12 13.8416012,12.0050414 14,12.0138639 C13.5640962,13.3258912 13.2644891,14.7400072 13.0717092,16.1200936 C12.003438,16.9834354 10.9584968,17.9564278 10.0694987,19 C9.0135065,17.3262514 8.5947933,15.5768815 9.48379141,13.9951386 M15.6438152,13 C16.4228763,13.1189343 17.2198212,13.3016175 18,13.5252141 C17.45231,13.753568 16.9370343,13.9876308 16.4709389,14.2169363 C16.0037258,14.4471931 15.5074516,14.7088487 15,15 C15.164307,14.3130352 15.3755589,13.6327307 15.6438152,13 M21.0006249,8 C22.8103421,8 24.1001406,9.17131002 25,10.8417309 C23.6514607,11.0954357 22.2841743,11.5103734 20.9993751,12 C19.7145758,11.511559 18.3472895,11.0966212 17,10.844102 C17.8998594,9.17249555 19.1896579,8 21.0006249,8 M26,15 C25.4927374,14.7098002 24.996648,14.4471931 24.5296089,14.2169363 C24.0625698,13.9876308 23.5486034,13.753568 23,13.5252141 C23.7798883,13.3016175 24.5776536,13.1189343 25.3564246,13 C25.624581,13.6327307 25.8357542,14.3130352 26,15 M28,18 C28.7201566,18.6305609 29.4050881,19.3023856 30,20 C29.4050881,20.6976144 28.7201566,21.3694391 28,22 C28.049576,21.2959381 28.0717547,20.6215345 28.0717547,20 C28.0717547,19.3784655 28.049576,18.7040619 28,18 M27.471476,12 C29.2112713,12 30.6993673,12.5432121 31.5158556,13.9951386 C32.4047843,15.5768815 31.9873316,17.3262514 30.9314219,19 C30.0412655,17.9564278 28.996406,16.9834354 27.9269905,16.1200936 C27.7342256,14.7400072 27.4358697,13.3258912 27,12.0138639 C27.1583865,12.0050414 27.3167729,12 27.471476,12 M32.3110845,13.75 C31.0099189,11.517027 28.6017181,10.9137838 25.95024,11.1545946 C24.8333755,8.7622973 23.1009454,7 20.4998428,7 C17.8975116,7 16.1650815,8.76351351 15.0494457,11.157027 C12.3967389,10.9162162 9.98853814,11.5206757 8.68860122,13.75 C7.38743562,15.9805405 8.06443491,18.3472973 9.60027721,20.5 C8.06443491,22.6527027 7.38743562,25.0194595 8.68860122,27.25 C9.8165238,29.1825676 11.7713439,29.8940541 13.9989296,29.8940541 C14.3429582,29.8940541 14.6931303,29.8758108 15.0494457,29.8441892 C16.1650815,32.2364865 17.8975116,34 20.4998428,34 C23.102174,34 24.8346041,32.2364865 25.95024,29.8441892 C26.3065554,29.8758108 26.6579561,29.8940541 27.0019848,29.8940541 C29.2283418,29.8940541 31.1843905,29.1813514 32.3110845,27.25 C33.6122501,25.0194595 32.9364794,22.6527027 31.3994085,20.5 C32.9364794,18.3472973 33.6122501,15.9805405 32.3110845,13.75" id="Nuclear" fill="#FF612F"></path>
            </g>
        </g>
    </g>
</svg>