<?xml version="1.0" encoding="UTF-8"?>
<svg width="41px" height="102px" viewBox="0 0 41 102" version="1.1" xmlns="http://www.w3.org/2000/svg" xmlns:xlink="http://www.w3.org/1999/xlink">
    <!-- Generator: sketchtool 59.1 (101010) - https://sketch.com -->
    <title>F0DBAE40-524D-4831-9173-12123ECE6FCC</title>
    <desc>Created with sketchtool.</desc>
    <g id="Deluto-landing-page" stroke="none" stroke-width="1" fill="none" fill-rule="evenodd">
        <g id="Homepage-Copy" transform="translate(-1.000000, -1845.000000)" fill="#D8D8D8">
            <g id="Group-6-Copy-4" transform="translate(-42.000000, 1845.000000)">
                <circle id="Oval-Copy-2" cx="45.8" cy="2" r="2"></circle>
                <circle id="Oval-Copy-3" cx="54.6" cy="2" r="2"></circle>
                <circle id="Oval-Copy-2" cx="45.8" cy="10.8" r="2"></circle>
                <circle id="Oval-Copy-3" cx="54.6" cy="10.8" r="2"></circle>
                <circle id="Oval-Copy-2" cx="45.8" cy="19.6" r="2"></circle>
                <circle id="Oval-Copy-3" cx="54.6" cy="19.6" r="2"></circle>
                <circle id="Oval" cx="63.8" cy="2" r="2"></circle>
                <circle id="Oval-Copy-2" cx="72.6" cy="2" r="2"></circle>
                <circle id="Oval-Copy-3" cx="81.4" cy="2" r="2"></circle>
                <circle id="Oval" cx="63.8" cy="10.8" r="2"></circle>
                <circle id="Oval-Copy-2" cx="72.6" cy="10.8" r="2"></circle>
                <circle id="Oval-Copy-3" cx="81.4" cy="10.8" r="2"></circle>
                <circle id="Oval" cx="63.8" cy="19.6" r="2"></circle>
                <circle id="Oval-Copy-2" cx="72.6" cy="19.6" r="2"></circle>
                <circle id="Oval-Copy-3" cx="81.4" cy="19.6" r="2"></circle>
                <circle id="Oval-Copy-2" cx="45.8" cy="28.8" r="2"></circle>
                <circle id="Oval-Copy-3" cx="54.6" cy="28.8" r="2"></circle>
                <circle id="Oval-Copy-2" cx="45.8" cy="37.6" r="2"></circle>
                <circle id="Oval-Copy-3" cx="54.6" cy="37.6" r="2"></circle>
                <circle id="Oval-Copy-2" cx="45.8" cy="46.4" r="2"></circle>
                <circle id="Oval-Copy-3" cx="54.6" cy="46.4" r="2"></circle>
                <circle id="Oval" cx="63.8" cy="28.8" r="2"></circle>
                <circle id="Oval-Copy-2" cx="72.6" cy="28.8" r="2"></circle>
                <circle id="Oval-Copy-3" cx="81.4" cy="28.8" r="2"></circle>
                <circle id="Oval" cx="63.8" cy="37.6" r="2"></circle>
                <circle id="Oval-Copy-2" cx="72.6" cy="37.6" r="2"></circle>
                <circle id="Oval-Copy-3" cx="81.4" cy="37.6" r="2"></circle>
                <circle id="Oval" cx="63.8" cy="46.4" r="2"></circle>
                <circle id="Oval-Copy-2" cx="72.6" cy="46.4" r="2"></circle>
                <circle id="Oval-Copy-3" cx="81.4" cy="46.4" r="2"></circle>
                <circle id="Oval-Copy-2" cx="45.8" cy="55.6" r="2"></circle>
                <circle id="Oval-Copy-3" cx="54.6" cy="55.6" r="2"></circle>
                <circle id="Oval-Copy-2" cx="45.8" cy="64.4" r="2"></circle>
                <circle id="Oval-Copy-3" cx="54.6" cy="64.4" r="2"></circle>
                <circle id="Oval-Copy-2" cx="45.8" cy="73.2" r="2"></circle>
                <circle id="Oval-Copy-3" cx="54.6" cy="73.2" r="2"></circle>
                <circle id="Oval" cx="63.8" cy="55.6" r="2"></circle>
                <circle id="Oval-Copy-2" cx="72.6" cy="55.6" r="2"></circle>
                <circle id="Oval-Copy-3" cx="81.4" cy="55.6" r="2"></circle>
                <circle id="Oval" cx="63.8" cy="64.4" r="2"></circle>
                <circle id="Oval-Copy-2" cx="72.6" cy="64.4" r="2"></circle>
                <circle id="Oval-Copy-3" cx="81.4" cy="64.4" r="2"></circle>
                <circle id="Oval" cx="63.8" cy="73.2" r="2"></circle>
                <circle id="Oval-Copy-2" cx="72.6" cy="73.2" r="2"></circle>
                <circle id="Oval-Copy-3" cx="81.4" cy="73.2" r="2"></circle>
                <circle id="Oval-Copy-2" cx="45.8" cy="82.4" r="2"></circle>
                <circle id="Oval-Copy-3" cx="54.6" cy="82.4" r="2"></circle>
                <circle id="Oval-Copy-2" cx="45.8" cy="91.2" r="2"></circle>
                <circle id="Oval-Copy-3" cx="54.6" cy="91.2" r="2"></circle>
                <circle id="Oval-Copy-2" cx="45.8" cy="100" r="2"></circle>
                <circle id="Oval-Copy-3" cx="54.6" cy="100" r="2"></circle>
                <circle id="Oval" cx="63.8" cy="82.4" r="2"></circle>
                <circle id="Oval-Copy-2" cx="72.6" cy="82.4" r="2"></circle>
                <circle id="Oval-Copy-3" cx="81.4" cy="82.4" r="2"></circle>
                <circle id="Oval" cx="63.8" cy="91.2" r="2"></circle>
                <circle id="Oval-Copy-2" cx="72.6" cy="91.2" r="2"></circle>
                <circle id="Oval-Copy-3" cx="81.4" cy="91.2" r="2"></circle>
                <circle id="Oval" cx="63.8" cy="100" r="2"></circle>
                <circle id="Oval-Copy-2" cx="72.6" cy="100" r="2"></circle>
                <circle id="Oval-Copy-3" cx="81.4" cy="100" r="2"></circle>
                <circle id="Oval-Copy-3" cx="46.4" cy="2" r="2"></circle>
                <circle id="Oval-Copy-3" cx="46.4" cy="10.8" r="2"></circle>
                <circle id="Oval-Copy-3" cx="46.4" cy="19.6" r="2"></circle>
                <circle id="Oval-Copy-3" cx="46.4" cy="28.8" r="2"></circle>
                <circle id="Oval-Copy-3" cx="46.4" cy="37.6" r="2"></circle>
                <circle id="Oval-Copy-3" cx="46.4" cy="46.4" r="2"></circle>
                <circle id="Oval-Copy-3" cx="46.4" cy="55.6" r="2"></circle>
                <circle id="Oval-Copy-3" cx="46.4" cy="64.4" r="2"></circle>
                <circle id="Oval-Copy-3" cx="46.4" cy="73.2" r="2"></circle>
                <circle id="Oval-Copy-3" cx="46.4" cy="82.4" r="2"></circle>
                <circle id="Oval-Copy-3" cx="46.4" cy="91.2" r="2"></circle>
                <circle id="Oval-Copy-3" cx="46.4" cy="100" r="2"></circle>
            </g>
        </g>
    </g>
</svg>