<?xml version="1.0" encoding="UTF-8"?>
<svg width="40px" height="40px" viewBox="0 0 40 40" version="1.1" xmlns="http://www.w3.org/2000/svg" xmlns:xlink="http://www.w3.org/1999/xlink">
    <!-- Generator: sketchtool 59.1 (101010) - https://sketch.com -->
    <title>91E1C0BE-319B-4D86-BCD9-B9D8D30CE9C3</title>
    <desc>Created with sketchtool.</desc>
    <g id="Deluto-landing-page" stroke="none" stroke-width="1" fill="none" fill-rule="evenodd">
        <g id="Homepage-Copy" transform="translate(-149.000000, -1311.000000)">
            <g id="Group-10" transform="translate(149.000000, 1311.000000)">
                <rect id="Rectangle" fill="#DCEFFF" x="0" y="0" width="40" height="40" rx="10"></rect>
                <path d="M32,28 L28,28 L28,20.4716953 C28,20.2117336 28.2557143,20 28.5714286,20 L31.4285714,20 C31.7442857,20 32,20.2117336 32,20.4716953 L32,28 Z M23,28 L19,28 L19,12.5012108 C19,12.2249824 19.2557143,12 19.5714286,12 L22.4285714,12 C22.7442857,12 23,12.2249824 23,12.5012108 L23,28 Z M13,29 L9,29 L9,19.5140367 C9,19.2307396 9.25571429,19 9.57142857,19 L12.4285714,19 C12.7442857,19 13,19.2307396 13,19.5140367 L13,29 Z M34.25,28.5011514 L32.5,28.5011514 L32.5,20.500625 C32.5,19.3968024 31.6025,18.5004935 30.5,18.5004935 L28,18.5004935 C26.8975,18.5004935 26,19.3968024 26,20.500625 L26,28.5011514 L23.75,28.5011514 L23.75,13.0001316 C23.75,11.896309 22.8525,11 21.75,11 L19.25,11 C18.1475,11 17.25,11.896309 17.25,13.0001316 L17.25,28.5011514 L15,28.5011514 L15,19.2505428 C15,18.1467202 14.1025,17.2504112 13,17.2504112 L10.5,17.2504112 C9.3975,17.2504112 8.5,18.1467202 8.5,19.2505428 L8.5,28.5011514 L6.75,28.5011514 C6.33625,28.5011514 6,28.8361734 6,29.2512007 C6,29.666228 6.33625,30 6.75,30 L34.25,30 C34.665,30 35,29.666228 35,29.2512007 C35,28.8361734 34.665,28.5011514 34.25,28.5011514 L34.25,28.5011514 Z" id="Bar-graph" fill="#332F99"></path>
            </g>
        </g>
    </g>
</svg>