<?xml version="1.0" encoding="UTF-8"?>
<svg width="57px" height="102px" viewBox="0 0 57 102" version="1.1" xmlns="http://www.w3.org/2000/svg" xmlns:xlink="http://www.w3.org/1999/xlink">
    <!-- Generator: sketchtool 59.1 (101010) - https://sketch.com -->
    <title>29E285D6-E08A-4FF9-B901-453005E1CC6E</title>
    <desc>Created with sketchtool.</desc>
    <g id="Deluto-landing-page" stroke="none" stroke-width="1" fill="none" fill-rule="evenodd">
        <g id="Homepage-Copy" transform="translate(-1309.000000, -1217.000000)" fill="#D8D8D8">
            <g id="Group-6-Copy-3" transform="translate(1309.000000, 1217.000000)">
                <circle id="Oval" cx="37" cy="2" r="2"></circle>
                <circle id="Oval-Copy-2" cx="45.8" cy="2" r="2"></circle>
                <circle id="Oval-Copy-3" cx="54.6" cy="2" r="2"></circle>
                <circle id="Oval" cx="37" cy="10.8" r="2"></circle>
                <circle id="Oval-Copy-2" cx="45.8" cy="10.8" r="2"></circle>
                <circle id="Oval-Copy-3" cx="54.6" cy="10.8" r="2"></circle>
                <circle id="Oval" cx="37" cy="19.6" r="2"></circle>
                <circle id="Oval-Copy-2" cx="45.8" cy="19.6" r="2"></circle>
                <circle id="Oval-Copy-3" cx="54.6" cy="19.6" r="2"></circle>
                <circle id="Oval" cx="37" cy="28.8" r="2"></circle>
                <circle id="Oval-Copy-2" cx="45.8" cy="28.8" r="2"></circle>
                <circle id="Oval-Copy-3" cx="54.6" cy="28.8" r="2"></circle>
                <circle id="Oval" cx="37" cy="37.6" r="2"></circle>
                <circle id="Oval-Copy-2" cx="45.8" cy="37.6" r="2"></circle>
                <circle id="Oval-Copy-3" cx="54.6" cy="37.6" r="2"></circle>
                <circle id="Oval" cx="37" cy="46.4" r="2"></circle>
                <circle id="Oval-Copy-2" cx="45.8" cy="46.4" r="2"></circle>
                <circle id="Oval-Copy-3" cx="54.6" cy="46.4" r="2"></circle>
                <circle id="Oval" cx="37" cy="55.6" r="2"></circle>
                <circle id="Oval-Copy-2" cx="45.8" cy="55.6" r="2"></circle>
                <circle id="Oval-Copy-3" cx="54.6" cy="55.6" r="2"></circle>
                <circle id="Oval" cx="37" cy="64.4" r="2"></circle>
                <circle id="Oval-Copy-2" cx="45.8" cy="64.4" r="2"></circle>
                <circle id="Oval-Copy-3" cx="54.6" cy="64.4" r="2"></circle>
                <circle id="Oval" cx="37" cy="73.2" r="2"></circle>
                <circle id="Oval-Copy-2" cx="45.8" cy="73.2" r="2"></circle>
                <circle id="Oval-Copy-3" cx="54.6" cy="73.2" r="2"></circle>
                <circle id="Oval" cx="37" cy="82.4" r="2"></circle>
                <circle id="Oval-Copy-2" cx="45.8" cy="82.4" r="2"></circle>
                <circle id="Oval-Copy-3" cx="54.6" cy="82.4" r="2"></circle>
                <circle id="Oval" cx="37" cy="91.2" r="2"></circle>
                <circle id="Oval-Copy-2" cx="45.8" cy="91.2" r="2"></circle>
                <circle id="Oval-Copy-3" cx="54.6" cy="91.2" r="2"></circle>
                <circle id="Oval" cx="37" cy="100" r="2"></circle>
                <circle id="Oval-Copy-2" cx="45.8" cy="100" r="2"></circle>
                <circle id="Oval-Copy-3" cx="54.6" cy="100" r="2"></circle>
                <circle id="Oval" cx="2" cy="2" r="2"></circle>
                <circle id="Oval-Copy-2" cx="10.8" cy="2" r="2"></circle>
                <circle id="Oval-Copy-3" cx="19.6" cy="2" r="2"></circle>
                <circle id="Oval" cx="2" cy="10.8" r="2"></circle>
                <circle id="Oval-Copy-2" cx="10.8" cy="10.8" r="2"></circle>
                <circle id="Oval-Copy-3" cx="19.6" cy="10.8" r="2"></circle>
                <circle id="Oval" cx="2" cy="19.6" r="2"></circle>
                <circle id="Oval-Copy-2" cx="10.8" cy="19.6" r="2"></circle>
                <circle id="Oval-Copy-3" cx="19.6" cy="19.6" r="2"></circle>
                <circle id="Oval" cx="28.8" cy="2" r="2"></circle>
                <circle id="Oval-Copy-2" cx="37.6" cy="2" r="2"></circle>
                <circle id="Oval-Copy-3" cx="46.4" cy="2" r="2"></circle>
                <circle id="Oval" cx="28.8" cy="10.8" r="2"></circle>
                <circle id="Oval-Copy-2" cx="37.6" cy="10.8" r="2"></circle>
                <circle id="Oval-Copy-3" cx="46.4" cy="10.8" r="2"></circle>
                <circle id="Oval" cx="28.8" cy="19.6" r="2"></circle>
                <circle id="Oval-Copy-2" cx="37.6" cy="19.6" r="2"></circle>
                <circle id="Oval-Copy-3" cx="46.4" cy="19.6" r="2"></circle>
                <circle id="Oval" cx="2" cy="28.8" r="2"></circle>
                <circle id="Oval-Copy-2" cx="10.8" cy="28.8" r="2"></circle>
                <circle id="Oval-Copy-3" cx="19.6" cy="28.8" r="2"></circle>
                <circle id="Oval" cx="2" cy="37.6" r="2"></circle>
                <circle id="Oval-Copy-2" cx="10.8" cy="37.6" r="2"></circle>
                <circle id="Oval-Copy-3" cx="19.6" cy="37.6" r="2"></circle>
                <circle id="Oval" cx="2" cy="46.4" r="2"></circle>
                <circle id="Oval-Copy-2" cx="10.8" cy="46.4" r="2"></circle>
                <circle id="Oval-Copy-3" cx="19.6" cy="46.4" r="2"></circle>
                <circle id="Oval" cx="28.8" cy="28.8" r="2"></circle>
                <circle id="Oval-Copy-2" cx="37.6" cy="28.8" r="2"></circle>
                <circle id="Oval-Copy-3" cx="46.4" cy="28.8" r="2"></circle>
                <circle id="Oval" cx="28.8" cy="37.6" r="2"></circle>
                <circle id="Oval-Copy-2" cx="37.6" cy="37.6" r="2"></circle>
                <circle id="Oval-Copy-3" cx="46.4" cy="37.6" r="2"></circle>
                <circle id="Oval" cx="28.8" cy="46.4" r="2"></circle>
                <circle id="Oval-Copy-2" cx="37.6" cy="46.4" r="2"></circle>
                <circle id="Oval-Copy-3" cx="46.4" cy="46.4" r="2"></circle>
                <circle id="Oval" cx="2" cy="55.6" r="2"></circle>
                <circle id="Oval-Copy-2" cx="10.8" cy="55.6" r="2"></circle>
                <circle id="Oval-Copy-3" cx="19.6" cy="55.6" r="2"></circle>
                <circle id="Oval" cx="2" cy="64.4" r="2"></circle>
                <circle id="Oval-Copy-2" cx="10.8" cy="64.4" r="2"></circle>
                <circle id="Oval-Copy-3" cx="19.6" cy="64.4" r="2"></circle>
                <circle id="Oval" cx="2" cy="73.2" r="2"></circle>
                <circle id="Oval-Copy-2" cx="10.8" cy="73.2" r="2"></circle>
                <circle id="Oval-Copy-3" cx="19.6" cy="73.2" r="2"></circle>
                <circle id="Oval" cx="28.8" cy="55.6" r="2"></circle>
                <circle id="Oval-Copy-2" cx="37.6" cy="55.6" r="2"></circle>
                <circle id="Oval-Copy-3" cx="46.4" cy="55.6" r="2"></circle>
                <circle id="Oval" cx="28.8" cy="64.4" r="2"></circle>
                <circle id="Oval-Copy-2" cx="37.6" cy="64.4" r="2"></circle>
                <circle id="Oval-Copy-3" cx="46.4" cy="64.4" r="2"></circle>
                <circle id="Oval" cx="28.8" cy="73.2" r="2"></circle>
                <circle id="Oval-Copy-2" cx="37.6" cy="73.2" r="2"></circle>
                <circle id="Oval-Copy-3" cx="46.4" cy="73.2" r="2"></circle>
                <circle id="Oval" cx="2" cy="82.4" r="2"></circle>
                <circle id="Oval-Copy-2" cx="10.8" cy="82.4" r="2"></circle>
                <circle id="Oval-Copy-3" cx="19.6" cy="82.4" r="2"></circle>
                <circle id="Oval" cx="2" cy="91.2" r="2"></circle>
                <circle id="Oval-Copy-2" cx="10.8" cy="91.2" r="2"></circle>
                <circle id="Oval-Copy-3" cx="19.6" cy="91.2" r="2"></circle>
                <circle id="Oval" cx="2" cy="100" r="2"></circle>
                <circle id="Oval-Copy-2" cx="10.8" cy="100" r="2"></circle>
                <circle id="Oval-Copy-3" cx="19.6" cy="100" r="2"></circle>
                <circle id="Oval" cx="28.8" cy="82.4" r="2"></circle>
                <circle id="Oval-Copy-2" cx="37.6" cy="82.4" r="2"></circle>
                <circle id="Oval-Copy-3" cx="46.4" cy="82.4" r="2"></circle>
                <circle id="Oval" cx="28.8" cy="91.2" r="2"></circle>
                <circle id="Oval-Copy-2" cx="37.6" cy="91.2" r="2"></circle>
                <circle id="Oval-Copy-3" cx="46.4" cy="91.2" r="2"></circle>
                <circle id="Oval" cx="28.8" cy="100" r="2"></circle>
                <circle id="Oval-Copy-2" cx="37.6" cy="100" r="2"></circle>
                <circle id="Oval-Copy-3" cx="46.4" cy="100" r="2"></circle>
            </g>
        </g>
    </g>
</svg>