<?xml version="1.0" encoding="UTF-8"?>
<svg width="14px" height="14px" viewBox="0 0 14 14" version="1.1" xmlns="http://www.w3.org/2000/svg" xmlns:xlink="http://www.w3.org/1999/xlink">
    <!-- Generator: sketchtool 59.1 (101010) - https://sketch.com -->
    <title>00375D85-3C77-497A-B13F-512854DF204B</title>
    <desc>Created with sketchtool.</desc>
    <g id="Deluto-landing-page" stroke="none" stroke-width="1" fill="none" fill-rule="evenodd">
        <g id="Homepage-Copy" transform="translate(-144.000000, -1944.000000)" fill="#626262">
            <path d="M158,1951 C158,1951.5037 157.59213,1951.91304 157.086857,1951.91304 L151.912382,1951.91304 L151.912382,1957.08696 C151.912382,1957.59065 151.504511,1958 150.999239,1958 C150.493967,1958 150.087618,1957.59065 150.087618,1957.08696 L150.087618,1951.91304 L144.911621,1951.91304 C144.406349,1951.91304 144,1951.5037 144,1951 C144,1950.4963 144.406349,1950.08696 144.911621,1950.08696 L150.087618,1950.08696 L150.087618,1944.91304 C150.087618,1944.40935 150.493967,1944 150.999239,1944 C151.504511,1944 151.912382,1944.40935 151.912382,1944.91304 L151.912382,1950.08696 L157.086857,1950.08696 C157.59213,1950.08696 158,1950.4963 158,1951" id="Plus"></path>
        </g>
    </g>
</svg>