<?xml version="1.0" encoding="UTF-8"?>
<svg width="22px" height="21px" viewBox="0 0 22 21" version="1.1" xmlns="http://www.w3.org/2000/svg" xmlns:xlink="http://www.w3.org/1999/xlink">
    <!-- Generator: sketchtool 59.1 (101010) - https://sketch.com -->
    <title>4B8CA15C-9786-4D2D-9280-5DA320ABFADF</title>
    <desc>Created with sketchtool.</desc>
    <g id="Deluto-landing-page" stroke="none" stroke-width="1" fill="none" fill-rule="evenodd" stroke-linecap="round" stroke-linejoin="round">
        <g id="Deluto-Redesign" transform="translate(-507.000000, -1444.000000)" stroke="#323232" stroke-width="1.5">
            <g id="Group-11" transform="translate(144.000000, 1440.000000)">
                <g id="Promotion" transform="translate(364.000000, 5.000000)">
                    <g id="Group" transform="translate(0.364583, 0.366204)">
                        <line x1="10.8900556" y1="5.53356481" x2="14.3872685" y2="5.53356481" id="Path"></line>
                        <line x1="14.3872685" y1="5.53356481" x2="14.3872685" y2="9.03077778" id="Path"></line>
                        <path d="M0,13.2805556 C8.8537037,13.2805556 13.1068016,6.81403171 13.1068016,6.81403171" id="Path"></path>
                        <line x1="14.3872685" y1="1.10671296" x2="14.3872685" y2="0" id="Path"></line>
                        <line x1="17.7074074" y1="2.21342593" x2="18.8141204" y2="1.10671296" id="Path"></line>
                        <line x1="18.8141204" y1="5.53356481" x2="19.9208333" y2="5.53356481" id="Path"></line>
                        <path d="M9.96041667,1.10671296 L2.21342593,1.10671296 C0.990508102,1.10671296 0,2.09722106 0,3.32013889 L0,16.6006944 C0,17.8236123 0.990508102,18.8141204 2.21342593,18.8141204 L16.6006944,18.8141204 C17.8236123,18.8141204 18.8141204,17.8236123 18.8141204,16.6006944 L18.8141204,11.0671296" id="Path"></path>
                    </g>
                </g>
            </g>
        </g>
    </g>
</svg>