<?xml version="1.0" encoding="UTF-8"?>
<svg width="23px" height="24px" viewBox="0 0 23 24" version="1.1" xmlns="http://www.w3.org/2000/svg" xmlns:xlink="http://www.w3.org/1999/xlink">
    <!-- Generator: sketchtool 59.1 (101010) - https://sketch.com -->
    <title>7AFB991F-952B-4BBD-956B-09195DF5CB16</title>
    <desc>Created with sketchtool.</desc>
    <g id="Deluto-landing-page" stroke="none" stroke-width="1" fill="none" fill-rule="evenodd" stroke-linecap="round" stroke-linejoin="round">
        <g id="Deluto-Redesign" transform="translate(-144.000000, -1441.000000)" stroke="#323232" stroke-width="1.5">
            <g id="Group-11" transform="translate(144.000000, 1440.000000)">
                <g id="Promotion,-Rocket" transform="translate(0.000000, 2.000000)">
                    <g id="Group" transform="translate(0.150877, 0.461404)">
                        <line x1="12.8092456" y1="9.35829825" x2="4.33764912" y2="17.8298947" id="Path"></line>
                        <path d="M13.8073842,2.05858596 L13.8073842,2.05858596 C16.2565982,3.77806842 18.3894754,5.91094561 20.1089579,8.36015965 L20.1089579,8.36015965" id="Path"></path>
                        <path d="M16.1547474,13.4934439 L16.1223947,17.2427544 C16.1199982,17.5387211 16.0013719,17.8227053 15.7916789,18.0323982 L12.4186175,21.4054596 C12.1106684,21.7134088 11.5834404,21.5636281 11.4827877,21.1394491 L10.4882439,16.9312105" id="Path"></path>
                        <path d="M21.3767018,5.6425386 L22.1315965,2.01185439 C22.3760386,0.833978947 21.3335649,-0.209692982 20.1556895,0.0359473684 L16.5250053,0.790842105 C14.3597754,1.24138246 12.3730842,2.31381228 10.8093737,3.87752281 L8.01386667,6.67302982 C6.45854386,8.22715439 5.44722456,10.2426035 5.12849123,12.4174193 L5.08655263,12.7061965 C4.93317719,13.7510667 5.28306491,14.8067211 6.02957193,15.5532281 L6.61311754,16.1367737 C7.35962456,16.8832807 8.41527895,17.2331684 9.46014912,17.079793 L9.74892632,17.0378544 C11.9237421,16.7191211 13.9391912,15.7078018 15.4933158,14.1536772 L18.2888228,11.3581702 C19.8537316,9.79565789 20.9261614,7.80896667 21.3767018,5.6425386 L21.3767018,5.6425386 Z" id="Path"></path>
                        <path d="M8.6741,6.01279649 L4.92478947,6.04395088 C4.62882281,6.04634737 4.3448386,6.16617193 4.13514561,6.37586491 L0.762084211,9.74892632 C0.454135088,10.0568754 0.603915789,10.5841035 1.02809474,10.6847561 L5.23633333,11.6793" id="Path"></path>
                    </g>
                </g>
            </g>
        </g>
    </g>
</svg>